<mxfile host="65bd71144e" modified="2020-11-24T08:35:57.889Z" agent="5.0 (Windows NT 10.0; Win64; x64) AppleWebKit/537.36 (KHTML, like Gecko) Code/1.51.1 Chrome/83.0.4103.122 Electron/9.3.3 Safari/537.36" etag="18iVHEuWmQex7wqRrbL2" version="13.6.5">
    <diagram id="q9D4YvUuuatnLBDIVhE7" name="Page-1">
        <mxGraphModel dx="766" dy="545" grid="1" gridSize="10" guides="1" tooltips="1" connect="1" arrows="1" fold="1" page="1" pageScale="1" pageWidth="827" pageHeight="1169" math="0" shadow="0">
            <root>
                <mxCell id="0"/>
                <mxCell id="1" parent="0"/>
                <mxCell id="32" value="" style="edgeStyle=orthogonalEdgeStyle;rounded=1;orthogonalLoop=1;jettySize=auto;html=1;startArrow=classicThin;startFill=1;strokeWidth=2;fontColor=#4C0099;align=center;fillColor=#0050ef;strokeColor=#001DBC;endArrow=classicThin;endFill=1;" parent="1" source="28" target="31" edge="1">
                    <mxGeometry relative="1" as="geometry"/>
                </mxCell>
                <mxCell id="33" value="post / get" style="edgeLabel;html=1;align=center;verticalAlign=middle;resizable=0;points=[];fontColor=#FFFFFF;" parent="32" vertex="1" connectable="0">
                    <mxGeometry x="-0.2768" y="2" relative="1" as="geometry">
                        <mxPoint x="12.38" y="-8" as="offset"/>
                    </mxGeometry>
                </mxCell>
                <mxCell id="90" style="edgeStyle=orthogonalEdgeStyle;rounded=0;orthogonalLoop=1;jettySize=auto;html=1;exitX=0.5;exitY=1;exitDx=0;exitDy=0;entryX=0.5;entryY=0;entryDx=0;entryDy=0;strokeWidth=2;fillColor=#008a00;strokeColor=#005700;" edge="1" parent="1" source="28" target="88">
                    <mxGeometry relative="1" as="geometry"/>
                </mxCell>
                <mxCell id="94" value="Data&lt;br&gt;Updates" style="edgeLabel;html=1;align=center;verticalAlign=middle;resizable=0;points=[];" vertex="1" connectable="0" parent="90">
                    <mxGeometry x="-0.3179" y="2" relative="1" as="geometry">
                        <mxPoint x="-2" y="12.57" as="offset"/>
                    </mxGeometry>
                </mxCell>
                <mxCell id="28" value="db Interface" style="rounded=1;whiteSpace=wrap;html=1;" parent="1" vertex="1">
                    <mxGeometry x="330" y="340" width="120" height="60" as="geometry"/>
                </mxCell>
                <mxCell id="37" value="" style="edgeStyle=orthogonalEdgeStyle;rounded=1;orthogonalLoop=1;jettySize=auto;html=1;startArrow=classicThin;startFill=1;strokeWidth=2;fontColor=#FFFFFF;align=center;fillColor=#0050ef;strokeColor=#001DBC;endArrow=classicThin;endFill=1;" parent="1" source="31" target="36" edge="1">
                    <mxGeometry relative="1" as="geometry"/>
                </mxCell>
                <mxCell id="38" value="Mongoose" style="edgeLabel;html=1;align=center;verticalAlign=middle;resizable=0;points=[];fontColor=#FFFFFF;" parent="37" vertex="1" connectable="0">
                    <mxGeometry x="-0.1569" y="-3" relative="1" as="geometry">
                        <mxPoint x="-3" y="-6.21" as="offset"/>
                    </mxGeometry>
                </mxCell>
                <mxCell id="31" value="db API" style="rounded=1;whiteSpace=wrap;html=1;" parent="1" vertex="1">
                    <mxGeometry x="610" y="340" width="120" height="60" as="geometry"/>
                </mxCell>
                <mxCell id="34" value="" style="shape=ext;double=1;whiteSpace=wrap;html=1;aspect=fixed;fillColor=none;strokeColor=#0000FF;" parent="1" vertex="1">
                    <mxGeometry x="555" y="200" width="230" height="230" as="geometry"/>
                </mxCell>
                <mxCell id="36" value="db" style="rounded=1;whiteSpace=wrap;html=1;" parent="1" vertex="1">
                    <mxGeometry x="610" y="220" width="120" height="60" as="geometry"/>
                </mxCell>
                <mxCell id="92" value="" style="edgeStyle=orthogonalEdgeStyle;rounded=0;orthogonalLoop=1;jettySize=auto;html=1;strokeWidth=2;fillColor=#008a00;strokeColor=#005700;entryX=1;entryY=0.5;entryDx=0;entryDy=0;" edge="1" parent="1" source="88" target="91">
                    <mxGeometry relative="1" as="geometry"/>
                </mxCell>
                <mxCell id="95" value="Components&lt;br&gt;Updates" style="edgeLabel;html=1;align=center;verticalAlign=middle;resizable=0;points=[];" vertex="1" connectable="0" parent="92">
                    <mxGeometry x="-0.2723" y="1" relative="1" as="geometry">
                        <mxPoint x="-22.41" y="-1" as="offset"/>
                    </mxGeometry>
                </mxCell>
                <mxCell id="98" value="" style="edgeStyle=orthogonalEdgeStyle;rounded=0;orthogonalLoop=1;jettySize=auto;html=1;strokeWidth=2;startArrow=classic;startFill=1;endArrow=none;endFill=0;fillColor=#d80073;strokeColor=#A50040;" edge="1" parent="1" source="88" target="97">
                    <mxGeometry relative="1" as="geometry"/>
                </mxCell>
                <mxCell id="101" value="Sensor&lt;br&gt;Data" style="edgeLabel;html=1;align=center;verticalAlign=middle;resizable=0;points=[];" vertex="1" connectable="0" parent="98">
                    <mxGeometry x="0.2716" y="-3" relative="1" as="geometry">
                        <mxPoint x="3" y="-6.53" as="offset"/>
                    </mxGeometry>
                </mxCell>
                <mxCell id="88" value="State Manager&lt;br&gt;Redux" style="rounded=1;whiteSpace=wrap;html=1;" vertex="1" parent="1">
                    <mxGeometry x="330" y="480" width="120" height="60" as="geometry"/>
                </mxCell>
                <mxCell id="93" style="edgeStyle=orthogonalEdgeStyle;rounded=0;orthogonalLoop=1;jettySize=auto;html=1;exitX=0.5;exitY=0;exitDx=0;exitDy=0;entryX=0;entryY=0.5;entryDx=0;entryDy=0;strokeWidth=2;fillColor=#008a00;strokeColor=#005700;" edge="1" parent="1" source="91" target="28">
                    <mxGeometry relative="1" as="geometry"/>
                </mxCell>
                <mxCell id="96" value="User&lt;br&gt;Input" style="edgeLabel;html=1;align=center;verticalAlign=middle;resizable=0;points=[];" vertex="1" connectable="0" parent="93">
                    <mxGeometry x="-0.0588" y="1" relative="1" as="geometry">
                        <mxPoint x="88.59" y="0.97" as="offset"/>
                    </mxGeometry>
                </mxCell>
                <mxCell id="100" style="edgeStyle=orthogonalEdgeStyle;rounded=0;orthogonalLoop=1;jettySize=auto;html=1;exitX=0.5;exitY=1;exitDx=0;exitDy=0;entryX=0;entryY=0.5;entryDx=0;entryDy=0;startArrow=none;startFill=0;endArrow=classic;endFill=1;strokeWidth=2;fillColor=#d80073;strokeColor=#A50040;" edge="1" parent="1" source="91" target="97">
                    <mxGeometry relative="1" as="geometry"/>
                </mxCell>
                <mxCell id="102" value="User&lt;br&gt;Input" style="edgeLabel;html=1;align=center;verticalAlign=middle;resizable=0;points=[];" vertex="1" connectable="0" parent="100">
                    <mxGeometry x="-0.301" y="2" relative="1" as="geometry">
                        <mxPoint x="118" y="5.17" as="offset"/>
                    </mxGeometry>
                </mxCell>
                <mxCell id="91" value="UI&lt;br&gt;React" style="rounded=1;whiteSpace=wrap;html=1;" vertex="1" parent="1">
                    <mxGeometry x="80" y="480" width="120" height="60" as="geometry"/>
                </mxCell>
                <mxCell id="104" value="" style="edgeStyle=orthogonalEdgeStyle;rounded=0;orthogonalLoop=1;jettySize=auto;html=1;startArrow=classicThin;startFill=1;endArrow=classicThin;endFill=1;strokeWidth=2;fillColor=#0050ef;strokeColor=#001DBC;" edge="1" parent="1" source="97" target="103">
                    <mxGeometry relative="1" as="geometry"/>
                </mxCell>
                <mxCell id="105" value="I2C Comunication" style="edgeLabel;html=1;align=center;verticalAlign=middle;resizable=0;points=[];" vertex="1" connectable="0" parent="104">
                    <mxGeometry x="-0.2517" y="-4" relative="1" as="geometry">
                        <mxPoint x="20" y="-14" as="offset"/>
                    </mxGeometry>
                </mxCell>
                <mxCell id="97" value="Programme&lt;br&gt;Cuisson" style="rounded=1;whiteSpace=wrap;html=1;" vertex="1" parent="1">
                    <mxGeometry x="330" y="620" width="120" height="60" as="geometry"/>
                </mxCell>
                <mxCell id="103" value="Four&lt;br&gt;2nd Raspberry" style="rounded=1;whiteSpace=wrap;html=1;" vertex="1" parent="1">
                    <mxGeometry x="610" y="620" width="120" height="60" as="geometry"/>
                </mxCell>
            </root>
        </mxGraphModel>
    </diagram>
</mxfile>